<mxfile host="app.diagrams.net" modified="2021-03-27T07:57:39.856Z" agent="5.0 (Macintosh; Intel Mac OS X 10_15_7) AppleWebKit/537.36 (KHTML, like Gecko) Chrome/86.0.4240.193 Safari/537.36" etag="qjDtwWRjQIVEU__6eiE_" version="14.5.1" type="github">
  <diagram id="qD87dwTqAL2Hw8GyxTzB" name="Page-1">
    <mxGraphModel dx="946" dy="536" grid="1" gridSize="10" guides="1" tooltips="1" connect="1" arrows="1" fold="1" page="1" pageScale="1" pageWidth="827" pageHeight="1169" math="0" shadow="0">
      <root>
        <mxCell id="0" />
        <mxCell id="1" parent="0" />
        <mxCell id="G75y9jQYr7VfvWaaaW1N-3" style="edgeStyle=orthogonalEdgeStyle;rounded=0;orthogonalLoop=1;jettySize=auto;html=1;entryX=0.5;entryY=0;entryDx=0;entryDy=0;" edge="1" parent="1" source="G75y9jQYr7VfvWaaaW1N-1" target="G75y9jQYr7VfvWaaaW1N-2">
          <mxGeometry relative="1" as="geometry" />
        </mxCell>
        <mxCell id="G75y9jQYr7VfvWaaaW1N-1" value="&lt;pre&gt;EnableAutoConfiguration&lt;/pre&gt;" style="rounded=1;whiteSpace=wrap;html=1;fillColor=#ffe6cc;strokeColor=#d79b00;" vertex="1" parent="1">
          <mxGeometry x="160" y="60" width="210" height="60" as="geometry" />
        </mxCell>
        <mxCell id="G75y9jQYr7VfvWaaaW1N-13" style="edgeStyle=orthogonalEdgeStyle;rounded=0;orthogonalLoop=1;jettySize=auto;html=1;exitX=1;exitY=0.5;exitDx=0;exitDy=0;entryX=0;entryY=0.5;entryDx=0;entryDy=0;" edge="1" parent="1" source="G75y9jQYr7VfvWaaaW1N-2" target="G75y9jQYr7VfvWaaaW1N-10">
          <mxGeometry relative="1" as="geometry" />
        </mxCell>
        <mxCell id="G75y9jQYr7VfvWaaaW1N-15" style="edgeStyle=orthogonalEdgeStyle;rounded=0;orthogonalLoop=1;jettySize=auto;html=1;exitX=1;exitY=0.5;exitDx=0;exitDy=0;entryX=0;entryY=0.5;entryDx=0;entryDy=0;" edge="1" parent="1" source="G75y9jQYr7VfvWaaaW1N-2" target="G75y9jQYr7VfvWaaaW1N-9">
          <mxGeometry relative="1" as="geometry" />
        </mxCell>
        <mxCell id="G75y9jQYr7VfvWaaaW1N-17" style="edgeStyle=orthogonalEdgeStyle;rounded=0;orthogonalLoop=1;jettySize=auto;html=1;exitX=1;exitY=0.5;exitDx=0;exitDy=0;entryX=0;entryY=0.5;entryDx=0;entryDy=0;" edge="1" parent="1" source="G75y9jQYr7VfvWaaaW1N-2" target="G75y9jQYr7VfvWaaaW1N-7">
          <mxGeometry relative="1" as="geometry" />
        </mxCell>
        <mxCell id="G75y9jQYr7VfvWaaaW1N-2" value="&lt;pre&gt;&lt;pre&gt;AutoConfigurationImportSelector&lt;/pre&gt;&lt;pre&gt;返回需要注入容器中class全类名&lt;/pre&gt;&lt;/pre&gt;" style="rounded=1;whiteSpace=wrap;html=1;fillColor=#dae8fc;strokeColor=#6c8ebf;" vertex="1" parent="1">
          <mxGeometry x="145" y="180" width="240" height="60" as="geometry" />
        </mxCell>
        <mxCell id="G75y9jQYr7VfvWaaaW1N-4" value="import" style="text;html=1;strokeColor=none;fillColor=none;align=center;verticalAlign=middle;whiteSpace=wrap;rounded=0;" vertex="1" parent="1">
          <mxGeometry x="210" y="140" width="40" height="20" as="geometry" />
        </mxCell>
        <mxCell id="G75y9jQYr7VfvWaaaW1N-12" style="edgeStyle=orthogonalEdgeStyle;rounded=0;orthogonalLoop=1;jettySize=auto;html=1;entryX=0.5;entryY=0;entryDx=0;entryDy=0;" edge="1" parent="1" source="G75y9jQYr7VfvWaaaW1N-7" target="G75y9jQYr7VfvWaaaW1N-9">
          <mxGeometry relative="1" as="geometry" />
        </mxCell>
        <mxCell id="G75y9jQYr7VfvWaaaW1N-7" value="利用SpringFactoriesLoader组件读取&lt;span&gt;jar包下META-INF/spring.factories&lt;/span&gt;文件中&lt;br&gt;key=org.springframework.boot.autoconfigure.EnableAutoConfiguration对应的value值&lt;br&gt;这些value值为要自动注入的全类名" style="rounded=1;whiteSpace=wrap;html=1;fillColor=#dae8fc;strokeColor=#6c8ebf;" vertex="1" parent="1">
          <mxGeometry x="461" y="180" width="500" height="60" as="geometry" />
        </mxCell>
        <mxCell id="G75y9jQYr7VfvWaaaW1N-9" value="将自动注入的全类名过滤一波后返回，过滤的方式有如下几种&lt;br&gt;1. 实现AutoConfigurationImportFilter接口&lt;br&gt;2. 利用SpringBootApplication或EnableAutoConfiguration注解的exclude属性" style="rounded=1;whiteSpace=wrap;html=1;fillColor=#dae8fc;strokeColor=#6c8ebf;" vertex="1" parent="1">
          <mxGeometry x="461" y="300" width="500" height="60" as="geometry" />
        </mxCell>
        <mxCell id="G75y9jQYr7VfvWaaaW1N-11" style="edgeStyle=orthogonalEdgeStyle;rounded=0;orthogonalLoop=1;jettySize=auto;html=1;entryX=0.5;entryY=0;entryDx=0;entryDy=0;" edge="1" parent="1" source="G75y9jQYr7VfvWaaaW1N-10" target="G75y9jQYr7VfvWaaaW1N-7">
          <mxGeometry relative="1" as="geometry" />
        </mxCell>
        <mxCell id="G75y9jQYr7VfvWaaaW1N-10" value="是否开启自动配置，默认开启" style="rounded=1;whiteSpace=wrap;html=1;fillColor=#dae8fc;strokeColor=#6c8ebf;" vertex="1" parent="1">
          <mxGeometry x="461" y="60" width="500" height="60" as="geometry" />
        </mxCell>
      </root>
    </mxGraphModel>
  </diagram>
</mxfile>
